<svg width="512" height="512" viewBox="0 0 80 80" fill="none" xmlns="http://www.w3.org/2000/svg"><circle cx="27" cy="26" r="10" fill="#8FC98A" stroke="#1A2A22" stroke-width="2.2"/><circle cx="53" cy="26" r="10" fill="#8FC98A" stroke="#1A2A22" stroke-width="2.2"/><circle cx="27" cy="26" r="5.4" fill="#FAF8F4"/><circle cx="53" cy="26" r="5.4" fill="#FAF8F4"/><circle cx="28" cy="27" r="2.6" fill="#1A2A22"/><circle cx="54" cy="27" r="2.6" fill="#1A2A22"/><path d="M40 32 Q62 32 62 48 Q62 62 40 62 Q18 62 18 48 Q18 32 40 32 Z" fill="#8FC98A" stroke="#1A2A22" stroke-width="2.4"/><ellipse cx="40" cy="55" rx="14" ry="8" fill="#C2DDD0" opacity="0.8"/><path d="M30 46 q10 8 20 0" stroke="#1A2A22" stroke-width="2.2" stroke-linecap="round" fill="none"/><ellipse cx="26" cy="45" rx="3.4" ry="2.108" fill="#EE9878" opacity="0.85"/><ellipse cx="54" cy="45" rx="3.4" ry="2.108" fill="#EE9878" opacity="0.85"/><path d="M16 62 q-6 2 -4 6 M64 62 q6 2 4 6" stroke="#8FC98A" stroke-width="4" stroke-linecap="round"/><path d="M40 14 q6 2 5 7 q-5 2 -7 -3 Z" fill="#D46850" stroke="#1A2A22" stroke-width="1.4"/></svg>