<svg width="512" height="512" viewBox="0 0 80 80" fill="none" xmlns="http://www.w3.org/2000/svg"><path d="M30 20 q-6 -10 -12 -12 M50 20 q6 -10 12 -12" stroke="#1A2A22" stroke-width="2" stroke-linecap="round" fill="none"/><circle cx="17" cy="7" r="3.2" fill="#1A2A22"/><circle cx="63" cy="7" r="3.2" fill="#1A2A22"/><circle cx="40" cy="44" r="24" fill="#D8503F" stroke="#1A2A22" stroke-width="2.4"/><path d="M40 20 v48" stroke="#1A2A22" stroke-width="2.2"/><circle cx="28" cy="36" r="4.4" fill="#1A2A22"/><circle cx="52" cy="38" r="3.8" fill="#1A2A22"/><circle cx="31" cy="54" r="3.4" fill="#1A2A22"/><circle cx="51" cy="53" r="4" fill="#1A2A22"/><path d="M40 20 q-16 0 -18 12 q18 6 36 0 q-2 -12 -18 -12 Z" fill="#2C3A34" stroke="#1A2A22" stroke-width="2" stroke-linejoin="round"/><circle cx="33" cy="26" r="2.8" fill="#FAF8F4"/><circle cx="47" cy="26" r="2.8" fill="#FAF8F4"/><circle cx="33.952" cy="24.936" r="0.8959999999999999" fill="#FAF8F4"/><circle cx="47.952" cy="24.936" r="0.8959999999999999" fill="#FAF8F4"/><circle cx="33" cy="26" r="1.3" fill="#2C3A34"/><circle cx="47" cy="26" r="1.3" fill="#2C3A34"/><path d="M36 31 q4 3 8 0" stroke="#FAF8F4" stroke-width="1.6" stroke-linecap="round" fill="none"/></svg>